<svg xmlns="http://www.w3.org/2000/svg" viewBox="0 0 100 100">
  <defs>
    <linearGradient id="shieldGrad" x1="0%" y1="0%" x2="0%" y2="100%">
      <stop offset="0%" stop-color="#ff9900"/>
      <stop offset="100%" stop-color="#ff3300"/>
    </linearGradient>
    <linearGradient id="shieldBorder" x1="0%" y1="0%" x2="0%" y2="100%">
      <stop offset="0%" stop-color="#ffcc00"/>
      <stop offset="100%" stop-color="#cc2200"/>
    </linearGradient>
  </defs>
  
  <path d="M 12 25 C 20 23 40 20 50 15 C 60 20 80 23 88 25 C 90 26 90 55 90 60 C 90 80 70 93 50 98 C 30 93 10 80 10 60 C 10 55 10 26 12 25 Z" fill="url(#shieldGrad)" stroke="url(#shieldBorder)" stroke-width="4" stroke-linejoin="round"/>
  
  <path d="M 72 25 L 75 32 L 82 35 L 75 38 L 72 45 L 69 38 L 62 35 L 69 32 Z" fill="#ffffff" opacity="0.9"/>
  
  <!-- The dark pulse line -->
  <path d="M 12 55 L 24 55 L 34 25 L 45 68 L 56 36 L 64 50 L 68 50" fill="none" stroke="#2a1100" stroke-width="6" stroke-linecap="round" stroke-linejoin="round"/>
  
  <!-- Checkmark -->
  <path d="M 64 50 L 75 68 L 90 35" fill="none" stroke="#ffffff" stroke-width="8" stroke-linecap="round" stroke-linejoin="round"/>
  <!-- Outline to give checkmark edge -->
  <path d="M 64 50 L 75 68 L 90 35" fill="none" stroke="#2a1100" stroke-width="2" stroke-linecap="round" stroke-linejoin="round" opacity="0.8"/>
</svg>
